<svg width="500" height="500" viewBox="0 0 500 500" fill="none" xmlns="http://www.w3.org/2000/svg">
<g clip-path="url(#clip0_212_4312)">
<g clip-path="url(#clip1_212_4312)">
<path d="M351.621 30.8021C391.711 4.19313 444.845 12.5593 475.145 48.6104C479.137 53.3429 482.689 58.5089 485.719 64.0578C508.942 106.371 496.303 160.093 455.441 187.217L282.921 301.727C262.035 315.589 237.608 319.959 214.716 315.867L242.39 297.499C246.076 295.052 247.076 290.073 244.625 286.379C242.173 282.685 237.197 281.674 233.511 284.121L194.644 309.919C181.959 304.564 170.34 296.374 160.819 285.565L161.113 285.37C162.815 284.241 163.276 281.943 162.145 280.238C161.013 278.533 158.716 278.066 157.015 279.196L156.12 279.789C155.034 278.339 153.98 276.85 152.965 275.321C150.986 272.339 149.199 269.284 147.602 266.173L153.27 262.41C154.405 261.657 154.712 260.125 153.958 258.989C153.203 257.852 151.673 257.541 150.538 258.294L145.441 261.677C139.082 247.487 136.511 232.292 137.462 217.42L142.596 214.012C144.014 213.071 144.399 211.156 143.456 209.736C142.513 208.315 140.599 207.926 139.181 208.867L138.312 209.444C142.105 184.165 156.152 160.544 179.101 145.312L351.621 30.8021Z" fill="url(#paint0_linear_212_4312)"/>
<path d="M351.434 38.3388C355.388 35.7146 359.48 33.4572 363.668 31.558C368.258 29.3808 373.118 27.596 378.219 26.2553C423.535 14.3503 470.679 42.0238 483.516 88.0678C492.537 120.422 482.218 153.239 459.562 174.022C455.962 177.439 452.019 180.594 447.741 183.434L293.712 285.67C276.866 296.851 257.536 301.374 238.818 299.869L242.39 297.499C246.076 295.052 247.076 290.073 244.625 286.379C242.173 282.685 237.197 281.674 233.511 284.121L216.821 295.199C199.567 289.133 184.063 277.601 173.161 261.176C146.567 221.109 157.422 167.114 197.405 140.575L351.434 38.3388Z" fill="url(#paint1_linear_212_4312)"/>
<path d="M204.772 128.272L67.1663 219.607C61.4948 223.372 59.9552 231.031 63.7275 236.714C67.4997 242.397 75.1553 243.953 80.8268 240.188L218.432 148.853C224.104 145.088 225.644 137.429 221.871 131.746C218.099 126.063 210.443 124.507 204.772 128.272Z" fill="#E791CE"/>
<path d="M232.093 169.434L49.3033 290.76C43.6318 294.524 42.0922 302.183 45.8644 307.866C49.6366 313.549 57.2923 315.105 62.9637 311.34L245.753 190.014C251.425 186.25 252.964 178.591 249.192 172.908C245.42 167.225 237.764 165.669 232.093 169.434Z" fill="#E791CE"/>
<path d="M210.569 305.276L172.574 330.496C171.156 331.437 170.771 333.352 171.714 334.772C172.657 336.193 174.571 336.582 175.989 335.641L213.984 310.421C215.402 309.48 215.787 307.566 214.844 306.145C213.901 304.724 211.987 304.335 210.569 305.276Z" fill="#82D9F5"/>
<path d="M83.7366 398.356L21.0952 439.934C18.2595 441.816 17.4897 445.645 19.3758 448.487C21.2619 451.329 25.0897 452.106 27.9255 450.224L90.5668 408.646C93.4026 406.764 94.1724 402.935 92.2863 400.093C90.4001 397.251 86.5723 396.474 83.7366 398.356Z" fill="url(#paint2_linear_212_4312)"/>
<path d="M58.4363 386.983L-4.20506 428.561C-7.04079 430.443 -7.8106 434.273 -5.92448 437.114C-4.03837 439.956 -0.210554 440.734 2.62517 438.852L65.2666 397.274C68.1023 395.391 68.8721 391.562 66.986 388.72C65.0999 385.879 61.272 385.101 58.4363 386.983Z" fill="url(#paint3_linear_212_4312)"/>
<path d="M249.131 230.762L40.6682 369.129C35.5639 372.517 34.1782 379.41 37.5732 384.525C40.9682 389.639 47.8583 391.039 52.9626 387.651L261.425 249.285C266.529 245.897 267.915 239.004 264.52 233.889C261.125 228.774 254.235 227.374 249.131 230.762Z" fill="#E791CE"/>
<path d="M239.196 244.768L91.3212 342.92C84.5154 347.437 82.6679 356.628 87.1946 363.448C91.7213 370.268 100.908 372.134 107.714 367.617L255.588 269.465C262.394 264.948 264.242 255.758 259.715 248.938C255.188 242.118 246.002 240.251 239.196 244.768Z" fill="url(#paint4_linear_212_4312)"/>
<path d="M206.062 201.536L-44.5035 367.848C-48.4736 370.483 -49.5513 375.844 -46.9107 379.822C-44.2702 383.801 -38.9112 384.89 -34.9412 382.254L215.624 215.942C219.594 213.307 220.672 207.946 218.031 203.968C215.391 199.99 210.032 198.901 206.062 201.536Z" fill="url(#paint5_linear_212_4312)"/>
<path d="M255.669 193.81L5.10364 360.122C1.13362 362.757 0.0558832 368.118 2.69645 372.096C5.33701 376.075 10.6959 377.163 14.666 374.528L265.231 208.216C269.201 205.581 270.279 200.22 267.639 196.242C264.998 192.263 259.639 191.175 255.669 193.81Z" fill="url(#paint6_linear_212_4312)"/>
<path d="M275.321 208.931L27.8366 373.198C26.4187 374.139 26.0338 376.054 26.9768 377.475C27.9199 378.896 29.8338 379.285 31.2517 378.344L278.736 214.076C280.154 213.135 280.539 211.22 279.596 209.8C278.653 208.379 276.739 207.99 275.321 208.931Z" fill="url(#paint7_linear_212_4312)"/>
<path d="M148.588 208.553L26.3864 289.664C22.4163 292.299 21.3386 297.661 23.9792 301.639C26.6197 305.617 31.9787 306.706 35.9487 304.071L158.151 222.96C162.121 220.325 163.198 214.963 160.558 210.985C157.917 207.007 152.558 205.918 148.588 208.553Z" fill="url(#paint8_linear_212_4312)"/>
<path d="M68.0189 222.006L40.2924 240.41C38.8745 241.351 38.4896 243.266 39.4327 244.686C40.3757 246.107 42.2896 246.496 43.7075 245.555L71.434 227.152C72.8519 226.21 73.2368 224.296 72.2937 222.875C71.3506 221.454 69.4367 221.065 68.0189 222.006Z" fill="#451E53"/>
<path d="M21.8082 252.678L4.35072 264.266C2.93285 265.207 2.54795 267.122 3.49101 268.542C4.43406 269.963 6.34797 270.352 7.76583 269.411L25.2233 257.824C26.6411 256.882 27.026 254.968 26.083 253.547C25.1399 252.126 23.226 251.737 21.8082 252.678Z" fill="#451E53"/>
<path d="M64.9193 241.853L25.8968 267.754C22.7775 269.824 21.9307 274.036 24.0054 277.162C26.0801 280.288 30.2907 281.143 33.41 279.073L72.4325 253.172C75.5518 251.102 76.3986 246.889 74.3239 243.763C72.2492 240.638 68.0386 239.782 64.9193 241.853Z" fill="#451E53"/>
<path d="M15.2743 285.181L-12.4523 303.584C-13.8701 304.525 -14.255 306.44 -13.312 307.861C-12.3689 309.281 -10.455 309.67 -9.03714 308.729L18.6894 290.326C20.1072 289.385 20.4921 287.47 19.5491 286.049C18.606 284.628 16.6921 284.24 15.2743 285.181Z" fill="#451E53"/>
<path d="M195.336 155.288L89.565 225.494C86.4457 227.564 85.5989 231.777 87.6736 234.902C89.7484 238.028 93.9589 238.884 97.0782 236.813L202.85 166.608C205.969 164.537 206.816 160.325 204.741 157.199C202.666 154.073 198.456 153.218 195.336 155.288Z" fill="url(#paint9_linear_212_4312)"/>
<path d="M301.909 268.369L202.299 334.485C198.329 337.12 197.251 342.481 199.892 346.459C202.532 350.437 207.891 351.526 211.861 348.891L311.471 282.775C315.441 280.14 316.519 274.779 313.878 270.801C311.238 266.822 305.879 265.734 301.909 268.369Z" fill="#E791CE"/>
<path d="M279.871 272.619L103.243 389.855C99.2733 392.49 98.1955 397.851 100.836 401.83C103.477 405.808 108.836 406.897 112.806 404.262L289.434 287.025C293.404 284.39 294.481 279.029 291.841 275.051C289.2 271.073 283.841 269.984 279.871 272.619Z" fill="url(#paint10_linear_212_4312)"/>
<path d="M198.204 353.509L154.047 382.818C152.062 384.136 151.523 386.816 152.843 388.805C154.163 390.794 156.843 391.339 158.828 390.021L202.985 360.712C204.97 359.395 205.509 356.714 204.188 354.725C202.868 352.736 200.189 352.191 198.204 353.509Z" fill="#82D9F5"/>
<path d="M294.549 301.419L232.935 342.315C230.666 343.821 230.05 346.884 231.559 349.158C233.068 351.431 236.13 352.053 238.399 350.547L300.013 309.651C302.282 308.145 302.898 305.082 301.389 302.808C299.88 300.535 296.818 299.913 294.549 301.419Z" fill="url(#paint11_linear_212_4312)"/>
<path d="M140.683 405.03L96.5256 434.339C94.5406 435.657 94.0017 438.337 95.322 440.326C96.6423 442.315 99.3217 442.86 101.307 441.542L145.464 412.233C147.449 410.916 147.988 408.235 146.667 406.246C145.347 404.257 142.668 403.712 140.683 405.03Z" fill="#82D9F5"/>
<path d="M2.74251 489.175C3.59323 488.61 3.82417 487.462 3.25833 486.609C2.6925 485.757 1.54416 485.523 0.693438 486.088C-0.15728 486.653 -0.388224 487.801 0.177611 488.654C0.743446 489.506 1.89179 489.74 2.74251 489.175Z" fill="#82D9F5"/>
<path d="M8.66801 318.102C8.43089 314.36 5.20781 311.513 1.46905 311.743C-2.26971 311.973 -5.10835 315.193 -4.87123 318.936C-4.63412 322.678 -1.41103 325.525 2.32773 325.295C6.06648 325.065 8.90512 321.844 8.66801 318.102Z" fill="url(#paint12_linear_212_4312)"/>
<path d="M94.6934 388.118C99.2306 385.107 100.462 378.98 97.4445 374.433C94.4267 369.886 88.3022 368.642 83.7651 371.654C79.2279 374.665 77.9962 380.792 81.014 385.339C84.0318 389.885 90.1563 391.13 94.6934 388.118Z" fill="url(#paint13_linear_212_4312)"/>
</g>
</g>
<defs>
<linearGradient id="paint0_linear_212_4312" x1="333.81" y1="212.358" x2="462.587" y2="182.27" gradientUnits="userSpaceOnUse">
<stop offset="0.274684" stop-color="#E791CE"/>
<stop offset="1" stop-color="#661B60"/>
</linearGradient>
<linearGradient id="paint1_linear_212_4312" x1="290.631" y1="126.132" x2="475.879" y2="93.6368" gradientUnits="userSpaceOnUse">
<stop stop-color="#E791CE"/>
<stop offset="0.752054" stop-color="#49AFED"/>
<stop offset="1" stop-color="#82D9F5"/>
</linearGradient>
<linearGradient id="paint2_linear_212_4312" x1="10.659" y1="443.155" x2="89.167" y2="413.194" gradientUnits="userSpaceOnUse">
<stop stop-color="#82D9F5"/>
<stop offset="0.824412" stop-color="#49AFED"/>
</linearGradient>
<linearGradient id="paint3_linear_212_4312" x1="-7.95932" y1="420.676" x2="68.6676" y2="391.225" gradientUnits="userSpaceOnUse">
<stop stop-color="#451E53"/>
<stop offset="0.824412" stop-color="#49AFED"/>
</linearGradient>
<linearGradient id="paint4_linear_212_4312" x1="87.1946" y1="363.448" x2="259.715" y2="248.938" gradientUnits="userSpaceOnUse">
<stop stop-color="#49AFED"/>
<stop offset="1" stop-color="#E791CE"/>
</linearGradient>
<linearGradient id="paint5_linear_212_4312" x1="-46.9107" y1="379.822" x2="218.031" y2="203.968" gradientUnits="userSpaceOnUse">
<stop stop-color="#49AFED"/>
<stop offset="1" stop-color="#E791CE"/>
</linearGradient>
<linearGradient id="paint6_linear_212_4312" x1="2.69645" y1="372.096" x2="267.639" y2="196.242" gradientUnits="userSpaceOnUse">
<stop stop-color="#82D9F5"/>
<stop offset="1" stop-color="#E791CE"/>
</linearGradient>
<linearGradient id="paint7_linear_212_4312" x1="26.9768" y1="377.475" x2="279.596" y2="209.8" gradientUnits="userSpaceOnUse">
<stop stop-color="#49AFED"/>
<stop offset="1" stop-color="#E791CE"/>
</linearGradient>
<linearGradient id="paint8_linear_212_4312" x1="23.9792" y1="301.639" x2="160.558" y2="210.985" gradientUnits="userSpaceOnUse">
<stop stop-color="#49AFED"/>
<stop offset="1" stop-color="#E791CE"/>
</linearGradient>
<linearGradient id="paint9_linear_212_4312" x1="87.6736" y1="234.902" x2="204.741" y2="157.199" gradientUnits="userSpaceOnUse">
<stop stop-color="#451E53"/>
<stop offset="0.711538" stop-color="#E791CE"/>
</linearGradient>
<linearGradient id="paint10_linear_212_4312" x1="100.836" y1="401.83" x2="291.841" y2="275.051" gradientUnits="userSpaceOnUse">
<stop offset="0.456731" stop-color="#82D9F5"/>
<stop offset="1" stop-color="#E791CE"/>
</linearGradient>
<linearGradient id="paint11_linear_212_4312" x1="231.559" y1="349.158" x2="301.389" y2="302.808" gradientUnits="userSpaceOnUse">
<stop stop-color="#82D9F5"/>
<stop offset="1" stop-color="#49AFED"/>
</linearGradient>
<linearGradient id="paint12_linear_212_4312" x1="-4.87123" y1="318.936" x2="8.66646" y2="318.078" gradientUnits="userSpaceOnUse">
<stop stop-color="#451E53"/>
<stop offset="1" stop-color="#49AFED"/>
</linearGradient>
<linearGradient id="paint13_linear_212_4312" x1="83.7651" y1="371.654" x2="94.6934" y2="388.118" gradientUnits="userSpaceOnUse">
<stop stop-color="#82D9F5"/>
<stop offset="1" stop-color="#49AFED"/>
</linearGradient>
<clipPath id="clip0_212_4312">
<rect width="500" height="500" fill="white"/>
</clipPath>
<clipPath id="clip1_212_4312">
<rect width="792.516" height="203.79" fill="white" transform="translate(-230.637 417.273) rotate(-33.5741)"/>
</clipPath>
</defs>
</svg>
