<svg width="42" height="46" viewBox="0 0 42 46" fill="none" xmlns="http://www.w3.org/2000/svg">
<path d="M24.2455 0C24.7713 0 25.2141 0.355823 25.3486 0.840663C25.3735 0.853035 25.3982 0.866145 25.4227 0.880344L30.4818 3.81287C31.3303 4.30469 31.3303 5.5342 30.4818 6.02602L25.4227 8.95855C25.4122 8.96465 25.4015 8.97037 25.3909 8.97614V14.0915C26.3701 14.5668 27.0455 15.5737 27.0455 16.7389C27.0455 18.362 25.7349 19.6778 24.1182 19.6778C23.0347 19.6778 22.0887 19.0868 21.5825 18.2083H8.08182C5.23504 18.2083 2.92727 20.5253 2.92727 23.3833C2.92727 26.2414 5.23504 28.5583 8.08182 28.5583H33.9182C38.3816 28.5583 42 32.191 42 36.6722C42 41.1534 38.3816 44.7861 33.9182 44.7861H26.4881C25.9561 45.5216 25.0929 46 24.1182 46C22.5015 46 21.1909 44.6842 21.1909 43.0611C21.1909 41.438 22.5015 40.1222 24.1182 40.1222C25.3037 40.1222 26.3246 40.8298 26.7848 41.8472H33.9182C36.765 41.8472 39.0727 39.5303 39.0727 36.6722C39.0727 33.8142 36.765 31.4972 33.9182 31.4972H8.08182C3.61835 31.4972 0 27.8645 0 23.3833C0 18.9022 3.61835 15.2694 8.08182 15.2694H21.5825C21.9214 14.6813 22.4575 14.222 23.1 13.9827V1.15C23.1 0.514873 23.6128 0 24.2455 0Z" fill="#E791CE"/>
</svg>
