<svg width="643" height="165" viewBox="0 0 643 165" fill="none" xmlns="http://www.w3.org/2000/svg">
<path d="M567.001 0.000579834C606.04 0.00082257 638.204 29.4354 642.511 67.3219C643.086 72.3017 643.169 77.3769 642.728 82.4771C639.441 121.419 606.793 152 567.001 152.001H399.001C378.663 152.001 360.19 144.011 346.551 131.001H373.5C377.09 131.001 380 128.09 380 124.501C380 120.911 377.09 118.001 373.5 118.001H335.652C329.48 108.709 325.3 97.9822 323.714 86.4273H324C325.657 86.4273 327 85.0841 327 83.4273C327 81.7705 325.657 80.4273 324 80.4273H323.129C323.045 78.9626 323.001 77.4864 323.001 76.0006C323.001 73.1021 323.164 70.2415 323.48 67.4273H329C330.105 67.4273 331 66.5318 331 65.4273C331 64.3228 330.105 63.4273 329 63.4273H324.037C326.105 51.0074 331.185 39.6062 338.5 29.9996H343.5C344.881 29.9996 346 28.8803 346 27.4996C346 26.1191 344.881 24.9996 343.5 24.9996H342.654C356.56 9.64552 376.654 0.00058028 399.001 0.000579834L567.001 0.000579834Z" fill="url(#paint0_linear_9_116)"/>
<path d="M563.493 5.00098C567.343 5.00098 571.122 5.31038 574.805 5.9043C578.885 6.49098 582.971 7.46297 587.021 8.84277C622.995 21.1018 642.447 60.8788 630.466 97.6875C622.047 123.552 600.347 141.069 575.707 144.945C571.74 145.638 567.659 146.001 563.493 146.001H413.5C397.096 146.001 382 140.397 370.022 131.001H373.5C377.089 131.001 379.999 128.09 380 124.501C380 120.911 377.09 118.001 373.5 118.001H357.248C348.306 106.184 343 91.4621 343 75.501C343 36.565 374.564 5.00105 413.5 5.00098H563.493Z" fill="url(#paint1_linear_9_116)"/>
<rect x="280" width="154" height="20" rx="10" fill="#E791CE"/>
<rect x="236" y="40" width="198" height="20" rx="10" fill="#E791CE"/>
<rect x="309" y="122" width="42" height="5" rx="2.5" fill="#82D9F5"/>
<rect x="155" y="128" width="71" height="10" rx="5" fill="url(#paint2_linear_9_116)"/>
<rect x="143" y="109" width="71" height="10" rx="5" fill="url(#paint3_linear_9_116)"/>
<rect x="196" y="89" width="221" height="18" rx="9" fill="#E791CE"/>
<rect x="239" y="94" width="168" height="24" rx="12" fill="url(#paint4_linear_9_116)"/>
<rect x="141" y="50" width="258" height="14" rx="7" fill="url(#paint5_linear_9_116)"/>
<rect x="178" y="67" width="258" height="14" rx="7" fill="url(#paint6_linear_9_116)"/>
<rect x="192" y="86" width="246" height="5" rx="2.5" fill="url(#paint7_linear_9_116)"/>
<rect x="224" y="29" width="133" height="14" rx="7" fill="url(#paint8_linear_9_116)"/>
<rect x="260" y="2" width="32" height="5" rx="2.5" fill="#451E53"/>
<rect x="225" y="2" width="22" height="5" rx="2.5" fill="#451E53"/>
<rect x="235" y="14" width="49" height="11" rx="5.5" fill="#451E53"/>
<rect x="196" y="21" width="32" height="5" rx="2.5" fill="#451E53"/>
<rect x="160" y="10" width="32" height="5" rx="2.5" fill="#451E53"/>
<rect x="150" y="26" width="32" height="9" rx="4.5" fill="url(#paint9_linear_9_116)"/>
<rect x="104" y="64" width="32" height="10" rx="5" fill="#451E53"/>
<rect x="77" y="29" width="21" height="10" rx="5" fill="#451E53"/>
<rect x="69" y="89" width="32" height="10" rx="5" fill="url(#paint10_linear_9_116)"/>
<rect x="85" y="103" width="32" height="10" rx="5" fill="url(#paint11_linear_9_116)"/>
<rect x="297" y="14" width="114" height="11" rx="5.5" fill="url(#paint12_linear_9_116)"/>
<rect x="322.804" y="138" width="111" height="14" rx="7" fill="#E791CE"/>
<rect x="231" y="131" width="186" height="14" rx="7" fill="url(#paint13_linear_9_116)"/>
<rect x="272" y="149" width="50" height="7" rx="3.5" fill="#82D9F5"/>
<rect x="343" y="157" width="68" height="8" rx="4" fill="url(#paint14_linear_9_116)"/>
<rect x="210" y="158" width="50" height="7" rx="3.5" fill="#82D9F5"/>
<circle cx="125.5" cy="151.5" r="1.5" fill="#82D9F5"/>
<circle cx="72.5" cy="133.5" r="1.5" fill="#451E53"/>
<circle cx="86.5" cy="143.5" r="1.5" fill="url(#paint15_linear_9_116)"/>
<circle cx="112.5" cy="136.5" r="4.5" fill="#82D9F5"/>
<circle cx="126.5" cy="114.5" r="2.5" fill="#451E53"/>
<circle cx="117" cy="85" r="3" fill="#451E53"/>
<circle cx="77" cy="63" r="3" fill="#451E53"/>
<circle cx="101" cy="50" r="3" fill="#451E53"/>
<circle cx="77" cy="21" r="3" fill="#451E53"/>
<circle cx="160.5" cy="81.5" r="5.5" fill="#82D9F5"/>
<circle cx="201.5" cy="37.5" r="5.5" transform="rotate(-60 201.5 37.5)" fill="url(#paint16_linear_9_116)"/>
<circle cx="233" cy="118" r="8" fill="url(#paint17_linear_9_116)"/>
<circle cx="125.5" cy="32.5" r="5.5" fill="#451E53"/>
<circle cx="106.5" cy="15.5" r="5.5" fill="#451E53"/>
<circle cx="4" cy="72" r="4" fill="#451E53"/>
<circle cx="56" cy="61" r="4" fill="#451E53"/>
<circle cx="20.5" cy="109.5" r="1.5" fill="#451E53"/>
<circle cx="54.5" cy="34.5" r="5.5" fill="#451E53"/>
<circle cx="46.5" cy="103.5" r="4.5" fill="#451E53"/>
<circle cx="36" cy="76" r="3" fill="#451E53"/>
<circle cx="20" cy="43" r="3" fill="#451E53"/>
<defs>
<linearGradient id="paint0_linear_9_116" x1="473.5" y1="114.5" x2="574" y2="152" gradientUnits="userSpaceOnUse">
<stop offset="0.274684" stop-color="#E791CE"/>
<stop offset="1" stop-color="#661B60"/>
</linearGradient>
<linearGradient id="paint1_linear_9_116" x1="483" y1="37" x2="622.711" y2="98.2374" gradientUnits="userSpaceOnUse">
<stop stop-color="#E791CE"/>
<stop offset="0.752054" stop-color="#49AFED"/>
<stop offset="1" stop-color="#82D9F5"/>
</linearGradient>
<linearGradient id="paint2_linear_9_116" x1="151.5" y1="125.5" x2="218" y2="140.5" gradientUnits="userSpaceOnUse">
<stop stop-color="#82D9F5"/>
<stop offset="0.824412" stop-color="#49AFED"/>
</linearGradient>
<linearGradient id="paint3_linear_9_116" x1="149" y1="102" x2="214" y2="116.5" gradientUnits="userSpaceOnUse">
<stop stop-color="#451E53"/>
<stop offset="0.824412" stop-color="#49AFED"/>
</linearGradient>
<linearGradient id="paint4_linear_9_116" x1="239" y1="106" x2="407" y2="106" gradientUnits="userSpaceOnUse">
<stop stop-color="#49AFED"/>
<stop offset="1" stop-color="#E791CE"/>
</linearGradient>
<linearGradient id="paint5_linear_9_116" x1="141" y1="57" x2="399" y2="57" gradientUnits="userSpaceOnUse">
<stop stop-color="#49AFED"/>
<stop offset="1" stop-color="#E791CE"/>
</linearGradient>
<linearGradient id="paint6_linear_9_116" x1="178" y1="74" x2="436" y2="74" gradientUnits="userSpaceOnUse">
<stop stop-color="#82D9F5"/>
<stop offset="1" stop-color="#E791CE"/>
</linearGradient>
<linearGradient id="paint7_linear_9_116" x1="192" y1="88.5" x2="438" y2="88.5" gradientUnits="userSpaceOnUse">
<stop stop-color="#49AFED"/>
<stop offset="1" stop-color="#E791CE"/>
</linearGradient>
<linearGradient id="paint8_linear_9_116" x1="224" y1="36" x2="357" y2="36" gradientUnits="userSpaceOnUse">
<stop stop-color="#49AFED"/>
<stop offset="1" stop-color="#E791CE"/>
</linearGradient>
<linearGradient id="paint9_linear_9_116" x1="150" y1="30.5" x2="182" y2="30.5" gradientUnits="userSpaceOnUse">
<stop stop-color="#451E53"/>
<stop offset="1" stop-color="#49AFED"/>
</linearGradient>
<linearGradient id="paint10_linear_9_116" x1="69" y1="94" x2="101" y2="94" gradientUnits="userSpaceOnUse">
<stop stop-color="#451E53"/>
<stop offset="1" stop-color="#9A43B9"/>
</linearGradient>
<linearGradient id="paint11_linear_9_116" x1="85" y1="108" x2="117" y2="108" gradientUnits="userSpaceOnUse">
<stop stop-color="#451E53"/>
<stop offset="1" stop-color="#49AFED"/>
</linearGradient>
<linearGradient id="paint12_linear_9_116" x1="297" y1="19.5" x2="411" y2="19.5" gradientUnits="userSpaceOnUse">
<stop stop-color="#451E53"/>
<stop offset="0.711538" stop-color="#E791CE"/>
</linearGradient>
<linearGradient id="paint13_linear_9_116" x1="231" y1="138" x2="417" y2="138" gradientUnits="userSpaceOnUse">
<stop offset="0.456731" stop-color="#82D9F5"/>
<stop offset="1" stop-color="#E791CE"/>
</linearGradient>
<linearGradient id="paint14_linear_9_116" x1="343" y1="161" x2="411" y2="161" gradientUnits="userSpaceOnUse">
<stop stop-color="#82D9F5"/>
<stop offset="1" stop-color="#49AFED"/>
</linearGradient>
<linearGradient id="paint15_linear_9_116" x1="86.5" y1="142" x2="86.5" y2="145" gradientUnits="userSpaceOnUse">
<stop stop-color="#451E53"/>
<stop offset="1" stop-color="#82D9F5"/>
</linearGradient>
<linearGradient id="paint16_linear_9_116" x1="201.5" y1="32" x2="201.5" y2="43" gradientUnits="userSpaceOnUse">
<stop stop-color="#451E53"/>
<stop offset="1" stop-color="#49AFED"/>
</linearGradient>
<linearGradient id="paint17_linear_9_116" x1="233" y1="110" x2="233" y2="126" gradientUnits="userSpaceOnUse">
<stop stop-color="#82D9F5"/>
<stop offset="1" stop-color="#49AFED"/>
</linearGradient>
</defs>
</svg>
